<mxfile host="app.diagrams.net" modified="2020-05-12T13:23:13.058Z" agent="Mozilla/5.0 (Macintosh; Intel Mac OS X 10_13_6) AppleWebKit/537.36 (KHTML, like Gecko) Chrome/81.0.4044.138 Safari/537.36" etag="rMc6dCwLamX1SAlKAYUQ" version="12.8.8" type="github">
  <diagram id="TO0Jj85glyXTOzns6p1Q" name="Page-1">
    <mxGraphModel dx="1105" dy="665" grid="1" gridSize="10" guides="1" tooltips="1" connect="1" arrows="1" fold="1" page="1" pageScale="1" pageWidth="850" pageHeight="1100" math="0" shadow="0">
      <root>
        <mxCell id="0" />
        <mxCell id="1" parent="0" />
        <mxCell id="1g_gJFdNJ5SzNiuZb_D7-1" value="" style="strokeWidth=2;html=1;shape=mxgraph.flowchart.database;whiteSpace=wrap;" parent="1" vertex="1">
          <mxGeometry x="160" y="10.5" width="130" height="130" as="geometry" />
        </mxCell>
        <mxCell id="1g_gJFdNJ5SzNiuZb_D7-4" value="" style="shape=image;verticalLabelPosition=bottom;labelBackgroundColor=#ffffff;verticalAlign=top;aspect=fixed;imageAspect=0;image=https://commons.bmstu.wiki/images/b/b5/Postgresql.png;" parent="1" vertex="1">
          <mxGeometry x="182.71" y="56.5" width="84.58" height="75" as="geometry" />
        </mxCell>
        <mxCell id="1g_gJFdNJ5SzNiuZb_D7-7" value="" style="strokeWidth=2;html=1;shape=mxgraph.flowchart.database;whiteSpace=wrap;" parent="1" vertex="1">
          <mxGeometry x="340" y="10.5" width="130" height="130" as="geometry" />
        </mxCell>
        <mxCell id="1g_gJFdNJ5SzNiuZb_D7-10" value="" style="shape=image;verticalLabelPosition=bottom;labelBackgroundColor=#ffffff;verticalAlign=top;aspect=fixed;imageAspect=0;image=data:image/png,iVBORw0KGgoAAAANSUhEUgAAAOEAAADhCAMAAAAJbSJIAAABJlBMVEX///+UeV1ONilCmDRDmzVBlTNJpztFnzaRdViNcFBBljOOcVJLqD1Rq0KPclRFoDb39fNLMiRILh+zoY9Zr0lCJRJFKRg+HQBCpDVbRjs/IAlfsk7w7Og+HwapoZ1DJxWsmITd2tju7ey/ubbk3tjy7+zFuKs7GQDQxrvd1c3IvrVpV07Lx8XU0M63sK3n4dyHe3WlnJijjHVzY1uSh4K4p5ft8+x+cGluXVWYjomehm06oSuuz6oxAABjT0VUPTGysZK/vaI0CgAiAADZ5dd6vGxPrjjK4cdksVmiy52MwYWCv3mXxZAvmxZptF7V5tO207Jxr2hZo08zliFnp16oyKQonhHC3cBalUd5qGBzm1yEn2lLmD+ZpXutrIyFZEDQzrfc2sZry/j4AAATyElEQVR4nO1c62LbNrKmlNSmIlsiaZOUaEuyLpZkW1dLjnxJpaQnbZO0brpNz3ZPt80m7/8SBwRAEgAHJCSrm02W34/WocEBPsxgZjAArWkZMmTIkCFDhgwZMmTIkCFDhgwZMmTIkCFDhgwZMmTIkCFDhgwZMmTIkCFDhgwZMmTIkCFDhgwZUtAMf2oNB01D/O1g0NTSgF4cDFtJLdrBb1vt6bQ+EHsRuxyOU7v0W6WPDEmrV78mnbfqq55n13oz5rXhxHU9z3UXCaLG9Wu/EWpmL9pgC2Mwd76p4x8H1z3bcRy7N5HMR2vkS7NRn9f1qIkwyUZ7YvVqfpe9ZT1pYpujycp1TMuf0Nbca5h5H1bvJpB70bPy9NlcIgMN2SHv+c08sy6OeDCdNTwr3xihfwwv3KCt4wwAacOF27AsCzcyG+5sNEZjM5o3X7ONW3PHtoIuTUc2WcPJhek1iCz0z3rDyYeoYTqtWTgcBHsGztHSM00HTXrPI++b3pLpb3C9sj0yATZS75wVaPZiFFGPlulWJ5MLt0HaoLlZrUzP8aK2xhzNl+W5SMs2VYk9gsZmB+rJm1WthQZqNexG8MhFr4xQAzOYTwTvJi5k2jPzVt63E6M5NSnH2jD8/f+Eb+e9YWuFGphmRLImzP2ghoa+JPZYb4Tt/B/csGnTdtA0Tnx30WpfeKRVDxib1ppWa4GQuuV4q/mo3Z7nqSYbzUUt77jLyc1k6VLebmwtLjxkbYvQady4ZERRw1H4ct66sUzLs5czZDq0X2vBE+yhd5fh+CxG394keNxGZmBa4RwO8kR+DaKIDHXZoHzcZWAFdJR523JsuoabM5sMaCK8P0HPLdZ42z066ZGnbM57AR+ztyAudHhBBOZ7rMNs+S97kVqbdCSrnhs5AX8W8i7zmlElFHuwj9NuyK8t5tdT2rvNzMoNeebxLr5e81/lnlGKDjsXrQu6WpaRDUw90m7KtJtZwiTOLdppxBrPAr/qjBUR78Lxp4XnyebMbxk6Br539IxzDXiOuTH6oyJW3mMlDjEdtNoZTLDAyCapOK7XJn7PYzu9sERBQbO8Azt7zFB4pY0V5g3ZZ0SKwxk7Zt0TnIVhxVdYs4Zf5sJIi6wPN3py48+Nx8V5rJ0Go7FBDZhUOlt5G1QixFDDem3wDhhbmsmuuaZvMOZKlFinSmS6Iwx5o9AWeFjMisKmY7dibdhpxaPwRIfXIksDDhkgQyyHn3Iywxwf/CTmfLQWWbIsH5AhmQnGUrBSeYbYSzAqw5MqrHwfZLYsMGAbHsAQa11gOMIDcJgnVROyGGS8eBlbzKoAGdK1EC4ygyw6zkqnDm9M9QYw2lBW3lJmeAMwJELs6AHRVSNuGUQ55kX0ZOwCDAc2/9CIuxXCkHmEdcV6p2AsNbKoodwZZIgFC9ohA2pED4jvseNRiHpOxqBhhuL7eGL4XnG4iLIZ4nnM6zgNbE/C9KzN0BMYijoI0aKJTbRaQIZDkSH2NKzqiUNgn3iidQRYAMEsiSG2M8FK6ZRHD9oyK9VqMEOhaWxxkvjOWhqOKB4zMVgOYKU0cXkYQzLljKchDAFPo5HoZEYP1BjiWMdpyHcsHB9XtP8A2Oq2zZBYaTxaBKsltg7TGNLFFCWLhm+jXEZBkpd4tAhCD8QQe6GNGEKpGMuQ0QUhk8pwSAK3NyEMWoix5XDuMU8axF0mYQj6UjDiKzGkkR3Id0n4jcVDmCE77VNC0XLm7UF7jvbN9pLPCUmoBdY+sVIn9lzGcCr1NKyMlcxDx8KIog7R1NJNuWV7tmU6rrjIcRol7irxL3CgBMLI2gwZ9xGkSvG0DWuCXT/KDLXxDG/KTctq1FbTmHmQQeQbcNrWECtEcoY3MoacG6OpkiN2h+2Zm0/KkBcIMkQDujYt53oxH4H5CdmQxFNs7KQ8sB7VhDwNlLVh18kxNOhmVzQlvIpd1njpGlZiOFxZ1/JSKt1V5oXHWE+A8eJ+YqrRaOxNZRhsdsVykp+bWFzeMZAzFEzXmPdMWBX0JZIvNYRZxduCHlxCHkIMob1FO86wRVaFkGNgibzfJqFTgWHbr9YBwSACWfxiG9/p2XApinYuaH0G7A/J7omfijotH3Dm4auwNwLe5QsEgOka1x6JpAlKpJtd02IVVrdFq2FAkkF+36lBPpmsAMEiF8ROHWZMM/TIFaaTrh5+g1qP9TIgo8+b7nJ+Ux8Nhk2AalDNYxb6CJmuVYUX75jW1czlMGxgNKklOJPojKZ1Q0vQ+RHX64VD49eUPB74pb0et0paQ7pe88487MUY14MS43IUdkOrh76KHKdhezXXqc7mbZ5nnc6DuyDlgfEEmbu9hAg2r1deUMg3PauKJ360tLywhOtZpIo6Zxo2vBVrRQtaDHXs6mJxnUdm1uDSlBYK3uEJg+U5Jrbfa8tr5COJwRKqhxRDmKZl1xYcx3aQFnj568Wi6lf4wYq3X+00MSz6P2zIM8dkUcMDWpEmFm3JJcNtk54dkF/bJu/mmj1+xMQLstXsPFMHnMcpYi78AYd/uBHoGvXpeAvJQVzbzVeXF7PZYja7WFZXpIg7cfKr6pKgWl252BIuVsuL61nQUvRLo2vXcywEx/NmsQD+dc0/KrMbjYZtox+/xg1WPdetkYfIFN1vQnczsiyQoxAJmhOr1vD7dGy3Ok09aHw4WoP6fDKZT6FTz2az1TLwc8NotcZD+tB/GjxssmeyyCshw/bnxGE0Hd/XN0c3k8nkpv1voLddTB3TnrQHg0F7NPVP/8KzsGH6u58DjJnnsBsmY3hDz/scSTz/zDBEWwoxuTy9IFsYOOn8zDD6xoTK1rgCv0WGL7cmaV34obwG+Spvuwy/3ZqkNeGnY1Bdi+TVUE1vMxjffb8tUWsC2HVT+GYKltE2wrP9V9sStR6GNSlDtFuJ7Xk3xsvDo/tPo0S8/wSt1C+bilvejYEIHlUOtyRsPZA6QA3+jQmem22A7/ePjo527l5vSdxaIFtbCziLr5r53pYymmc+waOdnftPEjGuSfk1Zo5oL9ADl+f6eP3dEWFYuXu6HYlrIajpL7iQ2Jo1hB315nhGCCKGO5XKp6A4p0fVzk1YZmqitNTsgRcQ1sfPlODR3iejSG9e5R20eZ/M55PrvOeYjZXKDVIFfB8QRAzL5XJl75NoMby56F8YRNtD09lemPjukGNYrnySwD9c9qJtr2nV8tPEW8fr4OgwZLiPGZbvftqW7LUwnOd75Lpxr3qzxV3vt/uHIUXKsHz3Znvy14LRHKrc8l4Lz747ZBiWKe5/3monnxIvMcEYw/Knifx/BV7tHzIUI4aVHaj1af8Mo9MZj48JxuNxp3PWQQ/7COcB+medceI3BywM1JyVSeUiwRhntNPx6QYEX1ckDOGleFkoFTEKhUL4A/2pWCyxQL8q5i6v+scKozgo4PaMKPyP6F/0WVFXFBjh6d2+jGEZ2EmdFXLrQdeLxdzVWcooxupifYG358rGoWk/7AQMD2MMy+VY81t9TYZkVMXiVaJ3vFpTbKlwpWqvb5EKOSVyDO9+FJp3/qVvRBGRLFwmKFIvrStWL3TVGH67k8SwfC9kb8fn3ZNcoQCMRy+RheOvnVIJmgfEUarHfvfgtgTI1fGiLxUhgcVLFVMlKmTNlGdY+Rv01rh/opeEoVz2O8enhmGcnh53+udXl7lifBr0wlXSoIxO/5Jfj6WrPnbdSOBJrlgUBOo5BUv9CauQVeL+Lq/Et5LRdItcZyexFsf9g1xBJFnKdZIH1GHf0A94gSeCPD2XqsWXRIUJDMvS/LTPTncRtr8OCgICx8J58pD6zAslceWeXvEc9cs0hj9UOIaHMSst78qUiCIj01lRZi9GV1xBhQNJUwrGNopx33R8y01ZsZ8s7Ond3p6oxIDhLkX5V9nb3GzLzcW4EmJd8SRxUMzEAQxRbsBR1JPt9DXIcJeHND3tMLOdwBA5phxvqsVELR4wDMFFe8IaRSlZiYc7AsNDfx0KKMu2UceMbhIZ+jkZT/HqIQw1TtZtUr8vkQpjSowx3H0nGf0pM+wUY+HdElqLCTOfzvCMdeOFpJ5/rAAMD+MMJRvFdRiK+WxBHjQYhgVJhnDL2kNSylvZiTE8BBiWf4FfN9ZhyE88wkMYcj4uIXl7eb8Tpwgw3H0HF97WYyhoUZd6m6t0hpz1JLitZ3eYoMAwvg533z3bBkONz4Jko1dhqDHeFMimQvxUUWD4GGH3j60w5N28LnOCKgwZSQkMjcrOTtxMI4aPCXBIBM3UYHWiQFAzuOxG5iJYhrLNPNMmwUrf3lOCvBL3WWqJ3tRg47gKQ63PzolMiQcKDLsMQ3lsRcsQYnjIcaPeFNxDrc+Qc/O5AqzENRkmZKZvfIZxM90XCGJ9lqFltgFDzp9KVpAKQxVL1rRX4TqUMHwc4R2Um27AkC/zwOmICkPWZ8k7u0tg+FjAu//dEkNuJcJZswpDRoZ8u/n0fmcHMtN9kR220h+2xJDLmuH9qwJDNuLLu0KuFFQiyPAxlLhtxPCAi4mQmSowjLK2pBT+Z2KlhOFeGsN322LIpafwDpdhKMkjQpeclNCg3W8FNFMJQ+CociOGGutNwaw5nWG4mPXEbt8ghpCZShgCznQzhpdpOWUqwzA1Sqkm/u2uApqphCFQj2LzUnWGXXZeoLQmjaGRow1Kt8nJ8K8BQ8FMJQx/2xZDbiFCxY8Uhp2AYFrNDgX8gOGeCkMgM92MIevpQWeZyLBzQCeomEs7ztKOKhXQTPcfgQyBLeJmDDUuqwGKGQfszqjb7ffpkWy/e3VZDArCtyl1ZR+HIUPeTP9yhmlFFjZi6rp/0BqcuEa1Zf1c4cSCYbiXyPCRjy0y5ErlQMDmcgIZSsXbbhpJfx1CZsowfBRhiwxZBlBmqsTQf7dwknzK81MFNFPsaR7FsD1Pwx33PoShf1h3knSi78dDyEz34/R8hluLFjxDwGFwOi4UomNX4JBULybUEt/cwWYqYQjc/t6QYVd9HZb6/pkrPnUdI196Apy6FuVh//UdbKYShlDW9nAdpvjSWDw87l+Kh656Tmapv7EM03UIVNu2wTA5HkI5zfFV7CBY4lRf3ldgMwUZPgYkbMGXQgXR9MxbOMmS7TAMliFrpk8ghuAOeDOGbI2lAEy/wv7wjF+OJUmG+qoCm6lI7gnCI+gMcQsRXwd+r8BQO85xFCUnWdSZxsyU50YAV6IenLWBhRoVhtqpyoWF3yRmylELGILVxAdn3mBFXomh1uHWIqzEp/ewmcboISN9DG5FH7x7AkuBagz5m3CS0v4r2EwBhk/A+xgP3wGDt3AUGRr8lQywzbM70EwBguAy3JDheVp150SNIa9EuO749O+gmUIMwQsnmzFMPfpTZThOrUui7QVopl/FGaafkKozTMlK1Rly5XPJtRrQm+7GGcJGuhlD9jIwTECZIZs6yO4rVAAz3eXZfYWgcFNBmSFTTJQUrJUZdhVuZLwGzHSX5YbxBDwf3ZAhE+8lmYgyQ5U7JwbgTXcjahRQNVhkqHRTQePdg+SUW5nhGctQVnt7Hd9CPRYJPpFcGNqIIePiZcfT6gzZyCo9g4qZaZwhtL3flCEbpmW3TdStlGEovZeiPbsXzDTGUBIqNmPIOAfJPQWeYeKnI+w6LMibHQpmuv9IcRWueXMPg5kT+cnfpSpD9lJNwm3ot4wS93yOgqOROVJNyKGVGDLqkb+gzJCVllTkf3PHm6moQvnnsmvcoCVg7poknE4rM4x6B2sFEQQzFQjC6QzGeE2GzKUvWd3BB8sw6Usi5hJ24mF3UJIKzHT/D46hLFL4YBkWFT4ni+7SJH5EkJ4TECjcQw3w+j4y051DjmGCjfI32SXfW7CIlo2eeHjLMkw4I2QCT9IVU4Jvw+PgvZ1X/2AJJn4oy17hSvvugf2IIOVLl5yaVMaTltL61rT9yEx/ZRi+E79c48HmFKnTeKlKUFOTytRpEm2Z4mmoxMr//R4FCum3JATcbl360QzGabQGSylfnHH5vDTMMrW2pEtDEZC3oQx//2cYEP9I8Y98LegkoWU/quAWkj618MHGIOmW4TSql6p+hvj274Ri5Z9/hgzT/nAEd1k0V5IOfRx9cqenfOKiCXf7JD76LDq6SPtQLMJvRIuVP98HNppGkK9Y+tdbwNF3mE/qipfpQYUtifuIv3F8Es2YnnojI8L3WIuV98//oabBs1wM/hfN3HI0Ole30WeRusJ8n8ZOgEtXnCMx+idFZsbW+nj9ra/Fw/fPfTN98kviGjwdn9+CH1/rxYJ+edDFuDrJFZivPvXCQcq6Pu10b2OfZGKZuRMqE4mMlrSCyQt4iWLGL++fv/jjq3fydFvz7agQ+26SHRG+IlLSuUNpxC/ZQLv+997Sz51DmazExC9uYTx9dff78+cvXnyVkIzGPtJSgF7U066GHK8pdI2v1Xn88KfPMDkDW5OdXswdpLuDtb7H14u33fX1R/EeMfyQ2OJUebaRZRVKl12FjEOMPAkyS8XCrZpICV4gFX5MbNH5V4FB9BcruL+H4X+a7/9FDNW//GFwQqnYEg8s86R7tpl1hviIGKbELOMUIfzTI2f0L5oEOPf/c9Y5XnMcBr1VgiWPx+GfSekGOO+fbfR3TWIYIyPdiqD/WBiI4db++tR/Jl68+LCxm/o88OLDh089hL8YHz4ku9LPH18+w4//DQy/cE/z8ePHLzxaaMfHX7gOM2TIkCFDhgwZMmTIkCFDhgwZMmTIkCHDl4P/B5Wlk2OiCuWTAAAAAElFTkSuQmCC;" parent="1" vertex="1">
          <mxGeometry x="370" y="61.5" width="70" height="70" as="geometry" />
        </mxCell>
        <mxCell id="1g_gJFdNJ5SzNiuZb_D7-11" value="Amazon S3" style="outlineConnect=0;fontColor=#232F3E;gradientColor=none;strokeColor=#ffffff;fillColor=#232F3E;dashed=0;verticalLabelPosition=middle;verticalAlign=bottom;align=center;html=1;whiteSpace=wrap;fontSize=10;fontStyle=1;spacing=3;shape=mxgraph.aws4.productIcon;prIcon=mxgraph.aws4.s3;" parent="1" vertex="1">
          <mxGeometry x="425" y="300" width="80" height="100" as="geometry" />
        </mxCell>
        <mxCell id="1g_gJFdNJ5SzNiuZb_D7-27" style="edgeStyle=orthogonalEdgeStyle;rounded=0;orthogonalLoop=1;jettySize=auto;html=1;exitX=0.5;exitY=0;exitDx=0;exitDy=0;entryX=0.5;entryY=1;entryDx=0;entryDy=0;entryPerimeter=0;" parent="1" source="1g_gJFdNJ5SzNiuZb_D7-16" target="1g_gJFdNJ5SzNiuZb_D7-7" edge="1">
          <mxGeometry relative="1" as="geometry" />
        </mxCell>
        <mxCell id="1g_gJFdNJ5SzNiuZb_D7-28" style="edgeStyle=orthogonalEdgeStyle;rounded=0;orthogonalLoop=1;jettySize=auto;html=1;exitX=0.5;exitY=0;exitDx=0;exitDy=0;entryX=0.5;entryY=1;entryDx=0;entryDy=0;entryPerimeter=0;" parent="1" source="1g_gJFdNJ5SzNiuZb_D7-16" target="1g_gJFdNJ5SzNiuZb_D7-1" edge="1">
          <mxGeometry relative="1" as="geometry" />
        </mxCell>
        <mxCell id="1g_gJFdNJ5SzNiuZb_D7-29" style="edgeStyle=orthogonalEdgeStyle;rounded=0;orthogonalLoop=1;jettySize=auto;html=1;exitX=0.5;exitY=1;exitDx=0;exitDy=0;entryX=0.5;entryY=0;entryDx=0;entryDy=0;" parent="1" source="1g_gJFdNJ5SzNiuZb_D7-16" target="1g_gJFdNJ5SzNiuZb_D7-24" edge="1">
          <mxGeometry relative="1" as="geometry" />
        </mxCell>
        <mxCell id="1g_gJFdNJ5SzNiuZb_D7-30" style="edgeStyle=orthogonalEdgeStyle;rounded=0;orthogonalLoop=1;jettySize=auto;html=1;" parent="1" source="1g_gJFdNJ5SzNiuZb_D7-16" target="1g_gJFdNJ5SzNiuZb_D7-11" edge="1">
          <mxGeometry relative="1" as="geometry" />
        </mxCell>
        <mxCell id="1g_gJFdNJ5SzNiuZb_D7-33" style="edgeStyle=orthogonalEdgeStyle;rounded=0;orthogonalLoop=1;jettySize=auto;html=1;entryX=0;entryY=0.5;entryDx=0;entryDy=0;" parent="1" source="1g_gJFdNJ5SzNiuZb_D7-16" target="1g_gJFdNJ5SzNiuZb_D7-17" edge="1">
          <mxGeometry relative="1" as="geometry" />
        </mxCell>
        <mxCell id="1g_gJFdNJ5SzNiuZb_D7-34" style="edgeStyle=orthogonalEdgeStyle;rounded=0;orthogonalLoop=1;jettySize=auto;html=1;entryX=0;entryY=0.5;entryDx=0;entryDy=0;" parent="1" source="1g_gJFdNJ5SzNiuZb_D7-16" target="1g_gJFdNJ5SzNiuZb_D7-20" edge="1">
          <mxGeometry relative="1" as="geometry" />
        </mxCell>
        <mxCell id="1g_gJFdNJ5SzNiuZb_D7-35" style="edgeStyle=orthogonalEdgeStyle;rounded=0;orthogonalLoop=1;jettySize=auto;html=1;entryX=0;entryY=0.5;entryDx=0;entryDy=0;" parent="1" source="1g_gJFdNJ5SzNiuZb_D7-16" target="1g_gJFdNJ5SzNiuZb_D7-23" edge="1">
          <mxGeometry relative="1" as="geometry" />
        </mxCell>
        <mxCell id="2DCFJowxWR6zT7cf7C1k-2" style="edgeStyle=orthogonalEdgeStyle;rounded=0;orthogonalLoop=1;jettySize=auto;html=1;entryX=1;entryY=0.5;entryDx=0;entryDy=0;" edge="1" parent="1" source="1g_gJFdNJ5SzNiuZb_D7-16" target="2DCFJowxWR6zT7cf7C1k-1">
          <mxGeometry relative="1" as="geometry" />
        </mxCell>
        <mxCell id="1g_gJFdNJ5SzNiuZb_D7-16" value="resolve-app" style="rounded=1;whiteSpace=wrap;html=1;" parent="1" vertex="1">
          <mxGeometry x="255" y="200" width="120" height="60" as="geometry" />
        </mxCell>
        <mxCell id="1g_gJFdNJ5SzNiuZb_D7-17" value="" style="shape=image;verticalLabelPosition=bottom;labelBackgroundColor=#ffffff;verticalAlign=top;aspect=fixed;imageAspect=0;image=data:image/png,iVBORw0KGgoAAAANSUhEUgAAAJcAAABHCAMAAAA9fyVkAAAAxlBMVEX///9jJnhAbrMANoa6L323vtMQO4ihq8e7wtYyT5EALYLz9PcANIXb3+kAL4MMOYceQotOZJwAIn6YKIEmR40XPomWocBbEnI0Z7C4IXhWAG4AKoFEXZnBx9n5+vyOpc6okbJniL/MvtKAjrVzg67O0+Fqe6np6/KIlbm0AG/Ym7rQgqnOeaWqs8xfHXVecqStYZzUjrL04uwiXqydsdR7lsWKZ5nWztz47fIAFXt1R4e3dqaybKKSDnqpU5a/hrG/R4nnwdQ9Ma7SAAAEVElEQVRoge2WiVLkNhCGnQjL41PSIHkZfJDgQ+YwhkCW2WWP5P1fKi35WM8QjmGK8qbivyhsjVqtz61WS4Yxa9asWbNmzZr1f5S8O1FaTM2xJXl7pHV7NzXJpu6Ofm11OzXJpk56rqOpSTY1c+2mDa70HJROjaR1Ms77i7PV6uxyaiSt4rYFO/oTGherg4PVhFynv2mdqvfkd62TdHquj8cftI4/bnWodXwrV1Hvm5j3x790Or7f7FlfXF5ert/k1F861Z5cpz+4Tvd09UPyUxTu6eJduAx/75P/fbj212OudJEzVtauepeZr39LMmnIpjbcuhn6tPywYU1VtI1FI/2qYTDEKlsT1ywZy83UCEvYCFVmJOA7f00wH3EVNsKYYEItaGQBVxNI4YSGFcQ1JQJjgXjvOSNgiTFqpGoxEkN3lBnGJ8dUP5gcYbBA9oI6C8MPSAxthL1Y7sxVRNSLq7CBR6ZaGP4bpXB8w8Jc0KgJwzigQa0Hx8CYhxVFgqqZGOeEZiF8yRIprjCgDtizgGJOgItwGjSWxTxKXwSTV1ct1tUHHZmIcr0qbiMcmLzCUWGYAYLgKS6ml8e3qafWN8ck005qQrnmIt021FzFkraBAfuOC+m0MD3RvBiw+88t12ddvnJB/a6D0QCSzaa2S2hsKC790NBYOfYd0VcpE6NajbCNERcM7aqra7dcosMOMX55JY21XMNf64CKKnW10gR7CWQ8ojYlhebyin4IMErwzqXbGTPFzHDPqbh8RJLevsaaq3fgRt7Q9SoVhNuDuP68XPB2OovYwz70HZiC0bExToGrr6aKyyRisJcCKS6nX4tgVy7EMepFIku75HpPGhaKh0MvjWCemFM0ktqPYy6I6eDX5Rtc6c5cWIQLs5euBipeerrNeAWF0dA4GWxNuc1Vj+LlizdwrR+ur68fdIKlFG8dbAnilOptZOFgyK+wy6/NW8MmF+TXUEBrQnbn+vL18PDw64N+z4Xoc6BQXwv7kUpMmebi/UJKJEoIQiCyzlb6j7nUfuwCJjl/A9e3Q6VvrQeP2m39Kpc5PCriJOP6pR0nnBL1khFcaVKTLOVjLijRsbYvYvovXC/e0Fqu6y5KS4pZFZZUqKuK7wlFVwokVR4TipsqizFdtivEiOBQ76HsExWZzf0Iqx0pXxWDgVtcDnBZVuY+exsaxwtQuKfPR1Xtjdyj+hTAQQV5zxYYzk44Dofam0WqjYP2HGBBP093Pi6QOk/BHs5HSLhg2Y9bRoDpV5n1HNc4v5SSPI6b9s7gl919IpeqTsCKwX0gG+WGDJnNsm4/FHlfxeu8zay0LuM4N9UP6j4xXGJV05eJWRjPyP3+5eHhu/ucidK4fv1Mmo5rrfRk72RcNyulv55aUItMw7U+O1A6O3+i31zGT/S8r/5ouVY3TxksXnFnege9yDWRZq4dpbfj6uzvqTm2tT6/Af10WLNmzZo1a9asWf9t/QN0amwDTkb5EwAAAABJRU5ErkJggg==;" parent="1" vertex="1">
          <mxGeometry x="596.26" y="40" width="151" height="71" as="geometry" />
        </mxCell>
        <mxCell id="1g_gJFdNJ5SzNiuZb_D7-20" value="" style="shape=image;verticalLabelPosition=bottom;labelBackgroundColor=#ffffff;verticalAlign=top;aspect=fixed;imageAspect=0;image=data:image/png,iVBORw0KGgoAAAANSUhEUgAAAKUAAAA5CAYAAABXj+viAAAS/0lEQVR4Ae2cTY8dxRWG5w845jfw8Q8wPyAzc700QXYWgew8nhk2gD9QIMiOiI0UD5AFxuMVMB4WAYQjbC8gAhaAYcnXKhGRCFmESLEQCiLLjt5T9VafOn2qP+7tO56xaKl1urqr6947/fRTp+r2nYWFgw9XzXU97otxgrheLbRFHNPHWZ4qroW2Jm0Rx3quy6Yey8W4GtpOx1erBWwv64jtXbIuxfcxJKJu7/VYrNsWcWyktQmkB2nXPgMxABbYdYxgyzGzrWHugp/HW2Fvgxk3j4F07DJgRZutMYI02SVgt91gQ2BHOxp2KbfBjPoGZh9KDdPD0YAAM+4fHaJo2SJoHmQjgpWMGNtslB3IfjJnhIlQ2WhAs+C1lX0ou8zYddxATZizaGwpx+K+0aGfM9Rdpm01Jo1aMOduNCnNSbuy3Ba1PQVIC7EqN7tZZUaBg2WTMwIiDU/Rcl0WxHEPGrt/BjM2zFcyIvcDkD2QQ04NBQAYsnrd7wwmtJZcXMm78HFMOdCMhJl2ZLkttkI/Z6g7TWhuGNeMe8iEhJ2xzYCoowG3ZTk2EGrXlFk329OUU5hz3wMnquUTz1eHz1yqzl6+llbsu+uhpzoMakDoAkcfpzm5j+UU92gOORpEBrSu7taab9byLTHlwfXqm3/frLqW7/77Y3X1xmfVkTOXmlNSNCdvBpYl3mJzIg8U4B24sR/wMFdkJFC2zP27KfYxJ95vqueZEsf1fpUOCJS4kLy4pciLzuMs94yTk3+szm1flzwUFhy6HFg7Jxd63y8eixdcmZKGK5ov1mU9/MEEDu7fIzlkusgxFWgr41jvVcNhYWFZQTOrCZlDlmI/Uw7MGQFuXA+sP1N98NlfhcFX3/lE9gPQIcv1G58LzBf+/H4Fex753aUwyBII7YCIZQUtYR0rJqgJtxcLOeRuMh7fSxvcqOMdJ/ByfGSoa1OOPw+5srGVsUdTntp8I9vfVrh+47NqcvJ5MduXf/9nqsp9oZvsADAZkma00YEK58hFY4yQ8ULeyuhBInC0GJQQ9YojQ9ZlVmvMfqa085Ld5nz1L58kgLjxSxju4Hr1zPZ17mrE73/4XwWjou4dD5yo04rJenVsY6v65tubFc0J40od15gdoI5lTbQDIDpjwZy7MYck9LzxWG6LGewzQl2bEt1eS27ZM3dEG4DKLgApjKjXK9hPL//49qacE7rlHCbkkIfPbFZHN17Jckm09fW3N6svvvqm+tn9Mc/sNCINCUBoQMZdaMKpoRiSTzJntHEOOSSNac1oy/1M2W1G5pCeBdGN64EUgEJXjBwROafcDAp6TBXhnGsf5fACwHviVNGHn/8tcY39d3gDoLFsSNjZnmvGPWRCws7YZkDU0Ra0ZTnmmXEGqHubkqNuRgURobI5JKiRwc1kXSDDIOWFK+9H43FAEiJAPXnx9TQoSsSZDeaSAFovKKf8sgERDcnodLe3qzldiAxo2dSMNSbLM0BGQ5bivEx5z6+fqr774UfNiWzDnIBWLwfWnhFzIp7bvlZ98VU9gNH1vG3JSydrbl4agCXseRqQgKXtZooRauSDaAcXvhFvc3MSdonHqsnx56rl4xvV8vFnq/2HHol21QYdAHXqVmm+FhPSiF60eSRySOm2pd21it0tBjLIEz2rehDafYAY+aB3PrrxHA5lxp4m3H//Y9W1jz6VfPXU5utxBD7nfLNP95lBYE3XVdZw0Hw2DoDGMZ6+TgBTJsatAdvKOMY15JT9c0bmjjqi68WCkfHjl94IAxrCrSJHy8gZh9hRf+Bg3jWZJtL7uY0R+ixWtLDnkGsjFkwIeOa4Tk7ASM9Wy8ef6/86s0AfTRjyyjLc/PsjTgilA2/j2UmvTjKlgkdMaMs0qRMBm3TJ6hjAO7qxJTkicklsA160TYj1B+m7DeMCFHzD4y1iS+aUKWqYONq2McB03+rZ1CxmBeYJWLHtFojSm6uqfFJbBhxdxuTxMlw1fMPMqd9XMiWBazMk6tjj/uh7enMi59t+5xM3vwScYV5xXUbf+oP03SaUALO08CvJaY2J8x/ffF3SjLIpbS5ZMOfI85D6Mxeh7jI1oWc9lttiBn0Tav2+xjOlspyXM7btg/kwqsa8YdcS8sy1CvnaNAvAljnGFigvXHlv0Dzk3Q/9VrpDdIl2LV14GJV1UQdtnLz4WnX28lXpXkvnyf548e9b/b3UXZLuGHlYBNvEe1U9/TfjeYx3PvhkPn0TQdp36JHq8OmL1dmtt6qzW1erpeMb+fOLNJoTAdjRP7xUHT79YnXv6tP+eYsr+m2Fz68MeO+xp+U1lx7bCK/N3FEbUu+bKqcEwOjeD67LXGP2jjoK/DYGxpx2oQH11466LW1T1m2L5y5f06dn27UpcxN++Hn4Ph+VvfNxgwJcD84jZzbdGxg3HKDef/+j2Xn6tbI3ZwrnLl/NzkM7L7z5rqkVinitI6cvhvoRXn1T4Bjq2AXPMdznwKnraVOunH9ZH6pQ7swrizllT3NyVJ29ckch5JZrjW92Ok5Lh3l+22vXMNnckeUI2fKqCxVfzIMK+/qAAjAxmtdtrGy8wqYlfv/DjxVWveDCyznRmB/GB1p0HW9boFSAocfQC3Jku2Aqx0JiQbLnANYw7VPnnboOc0qYVS+nLv4pvJY2JI1KUy6tVAtTmTJaEkBPszy++YYMeDBSnmbhBLqdhtJtDfmGB5CjTazIJfXSgDvOR2ooYWzYD2a0aQkg1FBqADGS5jGcWzrGOoh60fvt9t0PPamrVkgVWOfVdz5Ox/CVrzakPe/U5msC0v5Dj1b6PGwHmMPUUmowjr5hU23aun4Nsr0ZUrktVywfw/xfmKTWb6bvdppPnIT5xjbjeW0CAMDidZuoj4tb6jp5YUoRoOilVE9DuazgQv1tddFRT1903fa+Q7GbjkZcOf9KBdthDQbjaLmO+nxpV8zYHHgAIhgrTGrHecOYM2I/l6//9Z/MlLAZFzG2yjORm3KRY8p43I+4cv6lDMjttz+u5yBpxLZYm7LOE5kvpsgc0okAyusW9Ju02zIpPVmPo9sAd5v17PkygT7xB0u4890HgfU3OBh1Nr6BCd06bKmX9IQ4R6oxaii18QAlbhousIUGW5+H7h05JAYhGCjpeqVttouY6kSoNfxyLO5HfojXwSAHEZDoRRtPpwp1OlDbDfki12S2pWO6uQxImVZTYOtzitspp+yZQ/r2rM1Jg2JahV0iI2AiUHgiCAsuGuqiC+27wJCAanKiBggfXuAgbD2/wUkXNsI2jSktlG1toHv8svC1KqwFaKxBayOa7lssWVu0rhfMiZwObXYtGo4mlDWQul62bUbf+vVwfTH6lvrKrOnbG+SQ1pq1KdVDvipnTLbU+xxjJrhRzztuoNdddgA1TKpjnhNlGM8zMPI3PQ+JvJSgi/2iQXUd7i9GZc6mKTkfWR59t0EppjCWxY2AXBOfUeeRvJjhC4B6IKZvHNZB1Puz7aVVGcHrnA6vhfQA7xVdul5qmFerJpQhZwx1dJqQw6rbw7b+XPg8dmCUQW1N6psvgpVAapqQRsR32VjwB0CeoVfkVvpXitjGLxUBB0yJc3HROJrm/KONMCK6/AtX3hcgMaLFE0WSWyYjrsofHH8ALHbUm100BxIeb7Mc6yDqbthCiYvPxeaU0obpbjG/eOria9mFRBsaFm6zXUTuCxc4h0ePoAVyc+HzdmrAdD584c13c8MtHQvzqnq+Ee0aU+L17vrVE5lUtt++0TSiNSTLtSlVTknT0Y4sO1EbT3/Qtu0wgR5yScKNR8/w/CS6ZjzUy+cmPbvp/BNmQx39KBtgz87j143MK5UZpZ6Ug5kmJ41FCt/IaCglR1ag6/lTfQzbXPAZNOTY1lM4ks+pNllXGyjdDAZywIrzucB+CeDlVceUtQH1DQXRaMMhl+QS2qxh5n5EzlPq+tiPG8U3JP8ZQYz9TFk2J353M2QBMDSj7mK9rhrtwrwvXHlPzHhgNfyiEV0RFwHcTJXgOC9in4iulIanadk+9yPqEb2GEnUxeEA+iHpcAJAMYCI0mMzWUGHggZEw1qPnX84GCGn0DTBV7qinZQCNvO7WW/K6sFyoGx4l4/sI7++GfKODyXTdreOYBUX/DSTP3XpLJuH1eRlgxpR4hE3aXFypYFsuOP/OB3/TbUzXlDQkIw1py5N1+S0NX7RPDHOUa2JCvEkaUZuurR3UB9QwDXNJ+2SP2IlWdGMcfcfnIUtTS/Z9iJmiOTWUGjR9jp2jxA2ClKNUn+fKnJ5jSZyPgVLpfPw95SaMN4EGmG0j2vNt9485RltHn+/NOerjNCXahWm1cLxUYgGDHUkvWk1ZziHZ3eruUb+ofnN2G91a6C7r5ytD9xZyTFvfK+ND6XwR9tJ3MM7pO71CiwIeQFZaP4jH9AS0hhJTLrhQ/DvgHygIwE63itdEDomuWj++h3PlPPmGJbejhebOB5+Q16OVEa/e+NTtHjHvSPPhNWBTnA+D4TysMHV4jdgdL65UmJM8t3U1fSb8XVH3yOkXg+liLinnLa6ktlBHRtvMDxdX5OFfvhYi5jEbI25Vf6Fz1Aw70pQ6YjuufS0Xuut1GeQQOLlzos04aOKxUuQ8pM4tWTd13WgTtinGfDRNQPtGDWXK7Qp269tmsV4Bbumq2b3byC5f9tc5I7v3ZqzzwwxQM0Aa5RgA1GaUcpwakq8ZFVyErBk9c2JfWAFJF1AAF/VR15qNOaYHGWFjFNvKxfcfXZs7IPLa7aPvVlgsPCwTol5xhyEjREMi6mrYWO4Tx5qH9H7FSJDQbfD32Z5V+TgbJ9R5nhcJt51PRF0Z0cYbhTdM2ZTWpAVz9hh979SNkExKc8YbpNdNkMG+w1A3bOuZEu8pyyk9E+ZTNtlFdi48DMicysIk/6DKfAOj60iXO1mT32/r/d52mJtsPtmDxFznmukC8sKNGZdyU6afJhAWL2ZQ2Jyxq+xBhH0jrWI01RbLbZHGw3vg9lixd07Z2s0HqJEzohvHim9aACoNCahL0AI+PtWjp3s8KFnPzo9m/8gAADZyyWEm7IIaAywYEuvcbwYPcnxGvZ/Qcz/LEucMdefNUTBjBr3q7pv5ozVkqVznlNqi6Io5oQ1ImS/aaRsLnHThhV8psm7IJ9cEAu5D1BPUXTDN5TjhoI1ZbosCS7xRuF2MHlSAUu9XpuuEZGDdDB7nNzXakN532fp4n+3MlM48ZHYctuRonOa0Zdmf/y4bkHY9ac58ECYsLZyX1Lknz9M3hjzZIymGZ0zmkuOacy6wE3Ib22CnKbOo4bUwszwQ1EHgG1Myd2QU6Bum9HJK34T5xY91Gl/j5b/L5mR2CTbsTxO/y2vFH5VxQMGv47zJ6bnAMRiC2LUWzWeP7zA0AkHBeIDNO97HcGPVSeaj8RhpQjd6ENtuPvw2GzkicktvtGwhZV4IiL2FNwTalBQBNmjkjh0mtNbZDeVZoBcj7jDUXZYk1CUTynFlRg0zzgk5pQfZAFM6o3ECFKCpv8HxYOM+dsX4RsYumKymBec+sOgCdRaIetlzhyEjREMiQQJE3B4rFk1JYzK6xoQdrSFZzqFGrojBDP6LRmnBk9iEWT9pg1E7/4cQj2cREBWN2WHOwjwkb4BbEgk9bw6W22IG+w5D3TCnySEJe19z1lDlEGUXvYcJAxSxDeaYhQgTootGN6zhA6x8Egf5Ih6UYHlH4eDFnxoKmzN2lT2IsG+kNUER22O5LeKYPs7yXOLRaNsYkykHm5BGZJwB6r7Qs55rxtt8NE0T4rNzO8U5Q915cxTMqKFmN1+KGvbalISLcQbIaMgEkTWo093iHDETY4SMtrqVcRZzuhBZsDyoUEfvj5brBGSKehk8HaNvQqUhGns7mZK5IyPNacvFHJIwM84ANWEuxgh1fB5SYEZdAJDibW5Owi5Rw2thZnkKWHvfAMaUzB0ZBXqmAz1ir9yx03wlE3I/AKEBGXehCWnEPjF1ndZ6XnmHoeljPgCn641tu9b2TA65aMqh+4bd9AqYaLxSnKMJM+NZA7JcMCHO3W1rH8jFePG9a+Bl/w5D3WVIwjzEhIS0T/ffy5TFbpQm7Iq6W6UpbdxFMM0CkQaquL3DkBGiIXEIRKw7dbSmdHNGbc1bYEp7E8AWKVekKW0smPOnecjxppaSQU0OSdiHmJPGZNRA9zIlc8reEYDsAROym+9jxqL1vBzS7vPMiH0jrQmK2B7LbZEQMLdkeS7RmNDmkFJGnbh254405TxzSNO2a8Y9ZELCzjgEepzTuAHmDHXnzVEwYwZ9x6h6COy9TNnoTi1ENqd0utvb1ZwuRBYsDyrU0fuj5ToBmaJeBo8ZdVtTet3pEKB61e0wZ5qn3E2jb84/MuLCN3LK29ychF2ihtfCzPIUsPa+AYwpmTsyCvQdpiTsjG3whovdZb6SCbl/j+SQfbpRwtDoQq39dHmHoREICsaj+Wxsg2D0Yx0mZO7I+POYS8b4f8fOHYXkKGEcAAAAAElFTkSuQmCC;" parent="1" vertex="1">
          <mxGeometry x="596.26" y="130" width="144.74" height="50" as="geometry" />
        </mxCell>
        <mxCell id="1g_gJFdNJ5SzNiuZb_D7-23" value="" style="shape=image;verticalLabelPosition=bottom;labelBackgroundColor=#ffffff;verticalAlign=top;aspect=fixed;imageAspect=0;image=data:image/png,iVBORw0KGgoAAAANSUhEUgAAATMAAACkCAMAAADMkjkjAAABNVBMVEX///////0kN0b///z8//8aguOa4fUBs+MiN0j//v8jOEYAn9kIIjL+/fv+/fklN0TQ1tkWLDomNUmMlJkYg+EmNkchOEjGys+iqq4tOkUdM0ECsuQ+ttbA4vIAp9yc4PcAHSvt8fIAoNgAmNLw9vhWZG3q+/6osbbk//8Pi93B6fMNoeYAtN8Aq9dSqOGX5fKJ2PSe2+UPLTkFd9Op1u7U8/tcxN4JseqP5/thyu0ifdJwdXmOkZe4vMBppt8CJTBye4Hc4+ZHUVgAGi8AFyM8Rk5/hId9yN9iq9dpn8/S5/I6vNE4utkfKjJRXmgAHiwJjtm67fAOn+sADiKKmaRAUF1tfolnb3ken8wApMZZptAdfcAhMjZ/g4OuvcMQdsaE0vYAABWq0O1eYWSZmpo5PT5MUlRRUADmAAAVZElEQVR4nO1cDWPbxpFdECuboAESEE0ShFJbcEDT9TlNzuk1rmmeCNrEpXe11JytYy6NnWsl+///hHtvFgChr5x7UqM43efIpgDsYvEwM/tmdhmlLCwsLCwsLCwsLCwsLCwsLCwsLCwsLCwsLCwsLCwsLCwsLCwsLCwsLCwsLCwsLCwsLCwsLCwsLCwsrgfa83RXnw+lXEe7/NeiCXL24N9+18Dvv/76X2v84Q//bik7Da273oNP7uzcLLGzc+fXtwVffvnl1tbWl7/qOtc9xp8bPK/bffAfj25u8NWfblfYug3OrnuEPz94WnsP/rizU1nZzs2vfr1VA9b2K8fa2WloF7756OYO+dp5BGw4M3bmWs5OAb7pPPijELZjrA2cVa4pnFk7Ow1PgbNPqilgx3BW29kWfdOrL3aCgL+kOYDp1HEDNwguPwYHHbvVL6f603KzjFd1u4HygsZw6gY4pVSWpzx9pueqw6B7+ZFW6KoHn9z8Ec5UPUjHCbQKi+U4iqLeahLnGMgVcea64WwBrHOnvBVDQhqvD3u4WTJeFiON67yLOAt0PH75cp2d6RmnY+l5dvptXAYfzBkeQ4f7z6Ok3WoPh0kSvViH+ioUr8P/Ri8SdhnKAbwdHFm/iJKkJYiig8f9XHsqOBMpyBmIed7rtaLD7JyeCz8B7y/UFQrND+UMD6JiP2p1yBjQwZP4/ezKOPOHnU7nIDR38lS+3k1aw2FbMGwLb/3TdkQEFJnpGONpt/3pmZ6V6kcc697lx7nBh3KGN9z320O+9U4Pj9dp9Xo9f3LeY/yNgG+Ss07JGSjT6m0S4Qa8BYEXxY/RMoe1nIlZytH5gTHH/ume8d8z9NRq+cpVV4YP5kxPdzkujB1elMiHTidapVcwBscFZ+huaDjTqr/bbnfkZkKc3Bd/koOR0mc5C5x8T4bzsn9Oz88ivuaflrPq7um43ca44SOH+/sdP2nBLoYHxRUYGoK4cAbnCoWE413cp9OBT7YjH4gS/NJmFH0ZnrUzx+3q/QhDM6598qyriohNfXUZzeR5uIdWVe3C0dAadb55c+erP5UJ5+2nW7efPt3kTrEPzvBYz1K0y0ZLv9VK/LnajMUp4ZWf1OkTsCDesXpoj2PxeKFwhocegjMvUHN/yF86SbS77M/n82kxPkgQQUHaYJArt5ytMdtidqX/dZ088qPoVb+6XdmzKIwCdtZpXYozR+PPwxrffPPwm8/uNHDrn2r8J34eVkFeLxOhLJZOAqX7e4gveuMq54lf55yDZ46V8awF3yRnKn88lLCZREVeXROufdgarfzw1LTjIMR1uzrrrxejsyPBQIWzy/mm6wZa//ZGjc/v3vj23q0a9+599VVpdY++urlz52F1q+xlqz0YDFaZw5ccoJNiAbMJuhw03/kJKowJiyHIr/UjOCcpc8qfJmfryMSAVYh2TtCFkkb7KUQOI9urWEnflMH4QAXE0Xjmrptezb+4Wf8KOIMy1XeflIzdBZ7c2XD26a17Nx9VQP752cPq/uleuz3YHqwVWRJj0fJEwgpCiuuUcjMw9MnzyKemowpnNYPmON6iu+FMhQfDIchJlmnt1HxHuKINd92lvMEBtysvizeGb/Kny0Sh7lnMPyCzV8AZ1LRDO7sruPH55zeefHurgXtgqrIzcPZN9YDpntjZUmP4jFjkw6FeLzkLGCOzNMvECLocs1PnLfiQpSlOaVVx5okpsoU2+qzibJIMOQmOU9qQCbvQ/+Bj+ry9N8lVg5sqLrjVATNYMbcsk6F0r8I3HcwBF3J2j5xtSmlNzuibiGdRzDE5quLM2AFST0wLz5aY5SLkORkfA0+cFv0CGGk9Woz3Xr5c9sNNtHFUNl+MEbtXi7necJZDgsIFoSoccS3j5QFJW48x5XgwsLQQoLMsjHGLuZoWcqtUGQvP4zV7PiwQ4q6CM0XfvFsFs7s3EM+adnZrpwI5u/Owasc5wMybWZki8tnlgcR7MJFGRrVH/mquNWKZSl8ia4l24/tHBxElaxLtFboUfFrFY4gI02AZ1pzF5Ky9vVaakyJd33gwXD5NkVmitc5fsd8Xc7kp5sswQw68HUUvU2E56ydIWEzPk/RKfNN1NcysCmg3EM8+bdjZrdrOHmEy+OybumE/YhYwbEVJEepSKYhcYe0gKw6MzG11QGzirzNNe+hh5L3o9WEkMh2stf0JQjZczUn3/cGgxws6rUES/VfSMvpsLddyMqAMCbpdhnuDMiBoN3/eHrSGe6O3fgJd3Vvqt1Qq7WScarerwhW7IGWt1iBqTZKr4MxRG87w6cm9irN7P8ZZOobYEFqi3VU/zEyYkiDvZZO9pCOD7AxpjJQEruGsxbzBGCCUPcQlRJTnuOk46vB6g3aLjJMzfci0PFniXYh0c8+WI7STP99GmyhGC+RwCBfgBWkAOQucMEp6hjPpuZ10ro0zSM3nTASY/NHoD/s5vQZxC24228P7ZkKdQLLLcKOJhm/2alKiKBFC2y0/h27VE9gCGxjbBNEDw1kqDxwVldM7enQGafq8TXumkYK0KE9fyMDAWYB0RSy2tXkdrevijHNgvJsYm2+L4owWqakEIkWQrB1Z1WKxjCSUtCB+ndS8cLjast9fm+A1RCLdlaRigMfe9nvjXvQYTltylvuSbMcyBdLQUiZPe028yMEZgh/p4FuaINdqVZypBdUdX1rUGzOsyf2vgDP9/7Azasdw309YmDFZM4Y11chbdIqUvd3p7S1EtjPokpxeqirOojlP5Ic82m4vtZv10M02MppFmOks7z9OWttNzhpFHfbRPoHIcCYdj/cn+3M1mxyWnKnQlyQiifrsGemDWNp1xTO+9Gy+vxsxdgwG9LTObp8BLQZJw94ebAPSzaNkF2+MK85gch6Dee63mYjjyaY+PHxbuIT6gtKIWmIdBw3OSlGPPpBlNlFy1uu0o2Pmvrireh2VnBWRCOJxyFkKY+HYrkCfneHsTpOze3XCfpIzxO1u18M8318ZiUB3GB5MlZcte3z7xeYeC7pEsqw4G2cekywIrIScRblac8bcBjMQqB71w3yvU8Yz8t0zKlBXnJk6WqesplWc0YNdZk14Hf2SM93jxa0oZNk9YM+Y7i/NGVea3LuVQLvx5Ak07acNfHvvzmclHt25898P63X0wGglfMqnE0SLNnVUr5XCfAbMal7HNYoIcb1zkKacRIfRwgh2pn6dznZ7L1SPSTlINakVT3Hmoz5Le/QtNNHUZwHnkYGJ6B1qFamkcQ4AwYNxpkxdwxHOOq1xlu+2MCa8vwChRBRkNr4CzoKu0t999xuDr7/+zdff/b6J30HpGtz4HB/vV5xpyYZLnQ1ri5IhIncPfjf3B7T/aINkyGKXP0ppPAz6JvtD5DecYZ5DzIeZSIblsco1LTUtpDM4g2lqyQNcz+hi022HBdvkUOfCGYh1mpy1wBmSUnAGdYcwKz13xegvyRm60frPT29XK+W3b//wxcZT79745wfGJxgouq72GpxpbSoGHmkLxxQPvWRCJlqIbxAbApFh+KsNzuBJwplJSmvOcub7LX+kmGibJwurPGARsXiGc9C0mK09ndXIffp6sla0MwTMPmfzk5zNfdqZj4TBMaVtV6LrJTnTrH39sLVVrftubT39okw+7wpn9x2kpAS8g39XVAd8dV35FECZqzCCWugNOzqOwNk2xtVrYrDtz1PMpoYzV56s5uxAOAsdUxUhZ3nF2VzK98k+F+aaa0UOM5Ge0SG0s9YQ4fCMncFch+AsY7nDlCPhBpfnTHsOOdvgaW1n8EdwhvshNMuP9tzKzvCr1pnkiphBYSDZqk19EOkYg4KdJTUgmrjwBs6G7Y1vOufZmXvGzowO7hy8ZcXWVJIkaQpYJYBv9qCJhbNOND1pZ53z7KzLmfPS8yYmTv10q+GbT7940vTN+1XhIXCYT24qX1ovFnU37oYzxjO84/XkFPZHF3GWmXjWN9mXJwuUUVULMvGnlSAmVcuEpoC0oO7jzEHOWgPh7IJ4NqrjmYPJ+vI1xy7s7OlWvV+Kdvb5pgJJO6simGbdxSsHrlW+9E1lm2eU+Cajtca8ScdsLkCVCyuMZybunORMjQfU/Zj3AllrhvBbtSvO8ueSZCXfUy/U1SDW0kUf742Qo/sXcJbmu+AMQRbvGvMmacqvQGvwNuBss13q9u2Tc0BtZ6cwGieYC2O4K5WPYsYIgYaInC0TxC3M717gBjIvv06mLNKrFKMdbD/ecFZpjYUULx6ziaOZffW5nCmcQWv5HU6dEMV47MB1AhZds8UeSIGk2Yfl57swRMOZc8I3U3WYIKwOEfOY1bEQKnWSy3Om/ibOaGd40zGmeiTE/jqXcmiGx4Z5ydI1zadV5gHENEr8fVoJYtP5nI0go/jUhTZW1EfCWnKGuLXCnSTaL6el8abxKuqYDD/UmDB2W4azoMkZ7Yzr1uioFMUyzN51cCbO+eYFZio6Y+Ivn8XxOpKcZIhEyJVUHKrW3x8hxWOOB6qSg0WKE51zOXP0fiJL8tH3cZjn00O2qDlT+cuWqaAk0cFqURSLQ2QeRscw8/8xzpw0YakDmexyGqZh3Ksqdz81Zx4icD5O6DEShSkvy/oUngFRY7rLus4w8ZPD/Z6fcHFyGE08cDY8nzNuzxjSTpPHvn/gJyLzy3jmiIzBk9MXe4mIWd6Y+s9faFYVDWf+Kc7om4HZINFmQ3QclQWh67AzWHku1c+y/Cm7TyAwoonpEB4wlA0pEBpMcTqdBHPChXbGNMon/UyGBkYCtzacBWqUQNkyyzSVjNbAaL6DBbMD9wLOaGcBK3PtqprZrupoPzVnppVW2cxPNpU81o0H/jKjWlWBXvimvMfgwepp1MuV1GnP5wweuPDbQhhpGw5pmxVnrJWn+z4SsEHPZJgDKaNEmBQC98c5Q+qSlZV0rl7Q/a8iniEl0k9v395wBk1bU3YRZ9wPqd6ufFZR8Rpbkkj7RUY5gNnN0/EeB0cHAQWJP8m5+VA4axvOHMPZ0HDGUgRfwaAlu7L8yduI9umbDRdMVeIx9zpIYXFAe0GfodKSbHHeRKuKM6da+GVdAx1nCw5TisBo9fp1qWkvsfeg67pd/cOXGzz98/9sCkPMAy7aUoYJf7rcRTgWoR/tTkb1GYw6XCAuCaJdrjs5XHdijdV/1Vdm+UPFr/j7X0KzYyBcPzd9+Xt9PfqLOVVvddDZ9HC3XJhCbNpdj+osTuVy8avY2C9lWF96fllOs/PDXek58sdTXbyQni+zZ89lke+vf/1tAw//pYn7+vT2S/MQ8vZ1Pl3sL1er5ZpbQzfbRrmhIZ0ueGbSD3W5Ap7NBawyMEvVufk9Nf1xGXKCBjMoCjTmmWlaWQOklcLNiol0WbDNZmdsNi37LRekHR2anuUSrlCE/X2048KpGpmLL2NnrGsGNOF6XV9hKqoWwxBMPO9czphBuEo37hw01vqRlja2iYIfJjv1OrpjUvvqVZsn26Rl6KnOausmVLLNxwzq5XPJv80xR/YfcJ/viZ5Vo+eqw+4l9iBLwYKeY4BEnAVpA9mVcuEWWVlddMvdBuKPjW1UzLbLTsrtGrJfQ3a5GHao5sudCmUr12w1dkTrK7cqaTbvZ7o0eXr9hmT83c2GLe7fOrnFpjwlAyiHepnd0h4SH+Sc3ub7cxyUsbGKugs4KwdSH2ha1mYfizHdcq1NVttNwnhyT9p53X/gE3DMjX0P/3fPlwdUIb9haO54in3nQiNrPJK5hFFEn3+Bqrf8bB6p/jqL437IN1ucD/v6S/VWTkOfuOZDevrx23R1YCyL4PYHr+4WkeJiz2zc+vyX6zRQbkfTokHLPQPlRfQ46UFurSrTpfIKgnqflenAk2PNG5X9B6p0uTomlwUO9utwi6NXvTC6vPt3t8S/O1iClYQ+4Evjvj/t8HsiQZc7YPKRloNKKmeu2eFQPbQXiLez3lweMX7PFRNtagQerznBkON+7IxJOjbjajoLoPpoLgVCCdZBPlMqLKCwYlVWWmFn5WRS1/Xi2dFRMVKbuYjAbCabLlV5sBHrNhd9xIBxrSdZ12zHOAI9rhZTQYYag7M+fkZVdVrQCPmge55BuoWNU/wXcSbPN/mRhAMzWVzhJvdrBJ5yOZ2aivVsytKIWeqiG3rCmey4NrHNq2cmTYFBMyw3PssM35iapkwwtFn1Car2tYVd4fedrgN4jnf3j2QFMy9G4MwZ9WezKWRPOq3sTDmjdFTMuBk7AE+Lon88lx0182PqW7izqbOjRYrGxUjPl8XxMXOyYlbkaDRK529mscZZdvLxe6d6p8xG9uPRiGXEOM+yAnxJPOtLPFPxUZxm+VGonXCWqfQozEiWTleprFepmXQwn2Y4k+UjlS/m/I7kaJajFT7ER/M0i4tFnqGt+thdFHnBO1IDXzzS89jEf63fl5w9KzmbydozfntDdsLj8ruPo1WcKbEnGs9RlstOEXzEW0DS8V7DxvI3aM/jehVyf22xSeQ+UmgXnKkl/oGRgR5JGLUynDk1Z3MILZWCxaMMKTIPG3jz92sWwZdcTikU7IwrfoEquLxnoqFasb1CnNwPtHTiXaKu8XMAdNQ7eSY1S4UzlfeLov/uDGe0GHAWM3QdN79mkr+fmw76odJpwanUE84UohrxEqdH5Gxdcfax+2ZXvdNOthQjIj1zxKBMneUsEM483Z8dv4mr1mYGGGcOWusjKXqm0xUCmHA2jbOU0KWd/WI4o2/Cl3J+X4D0vM8Yz85wxiBkOMtTs+VZlRvhXDXBkSIdySZSbhx/J5w5dGFMrxT+xs5mFWcf+7zZVWMqiAUYMpwxbo++v4AzZaJ8KcqUWZ1YscW0SFkhZSkJ0qXP73pjDqAk4UaNk7758XP2PX70KuZ2cNDT72fpPD4zB1R2pvaPjtZHsikXkncE8TBawQ/dbM3tgOEc4qL/TOnRLEu1Hr2H9Ahx8XHDN48+fs4cNaUuD1PlKmZBerpAAokgn5Y/PBjmvDCdq2yd8yujhZCm0hhKN06lBMusUw484wSh57M3iGP58azAebYHT3Mqm6z5PdNfCC4qc8o3dCFbFfd15c9OnOkGOjuy/6exM2DpuEtH9RDCptPTp0fH1zGonzkoxbo6ez/PvBRpwQlkefg+Pd/MPnLJfzmYhRAEqmdFfPr7+dlxP7+WQf3MYTgro/epoHdxDPzHhuEs4NomFwZOnOOXJn5pc+GVwaxuni1Pf/zrIhYWFhYWFhYWFhYWFhYWFhYWFhYWFhYWFhYWFhYWFhYWFhYWFhYWFhYWFhYWFhYWFhYWFhYWFteF/wX0h4hWErpQMQAAAABJRU5ErkJggg==;" parent="1" vertex="1">
          <mxGeometry x="596.26" y="200" width="131.04" height="70" as="geometry" />
        </mxCell>
        <mxCell id="1g_gJFdNJ5SzNiuZb_D7-31" style="edgeStyle=orthogonalEdgeStyle;rounded=0;orthogonalLoop=1;jettySize=auto;html=1;" parent="1" source="1g_gJFdNJ5SzNiuZb_D7-24" target="1g_gJFdNJ5SzNiuZb_D7-11" edge="1">
          <mxGeometry relative="1" as="geometry" />
        </mxCell>
        <mxCell id="1g_gJFdNJ5SzNiuZb_D7-24" value="resolve-pdf" style="rounded=1;whiteSpace=wrap;html=1;" parent="1" vertex="1">
          <mxGeometry x="255" y="360" width="120" height="60" as="geometry" />
        </mxCell>
        <mxCell id="2DCFJowxWR6zT7cf7C1k-3" style="edgeStyle=orthogonalEdgeStyle;rounded=0;orthogonalLoop=1;jettySize=auto;html=1;entryX=0.5;entryY=1;entryDx=0;entryDy=0;" edge="1" parent="1" source="1g_gJFdNJ5SzNiuZb_D7-26" target="1g_gJFdNJ5SzNiuZb_D7-24">
          <mxGeometry relative="1" as="geometry" />
        </mxCell>
        <mxCell id="1g_gJFdNJ5SzNiuZb_D7-26" value="resolve-web" style="rounded=1;whiteSpace=wrap;html=1;" parent="1" vertex="1">
          <mxGeometry x="40" y="460" width="120" height="60" as="geometry" />
        </mxCell>
        <mxCell id="2DCFJowxWR6zT7cf7C1k-1" value="quickbooks" style="shape=image;verticalLabelPosition=bottom;labelBackgroundColor=#ffffff;verticalAlign=top;aspect=fixed;imageAspect=0;image=https://quickbooks.intuit.com/content/dam/intuit/quickbooks/msm/sites/en/in/homepage/run_business_in_cloud.svg;" vertex="1" parent="1">
          <mxGeometry x="10" y="180" width="219.27" height="140" as="geometry" />
        </mxCell>
      </root>
    </mxGraphModel>
  </diagram>
</mxfile>
